<svg width="904" height="67" viewBox="0 0 904 67" fill="none" xmlns="http://www.w3.org/2000/svg">
<g filter="url(#filter0_d_1_22)">
<path d="M882.631 21.4715C880.53 20.8954 878.671 20.598 876.645 21.9361C873.131 23.0139 870.305 24.2962 866.643 23.8502C863.297 24.705 859.932 27.6784 856.53 24.6678C851.455 20.6724 846.51 21.9918 841.472 21.4343C834.78 19.037 828.013 20.3007 821.302 21.4715C817.547 21.4529 815.52 22.6422 812.174 23.1068C810.743 24.5749 809.925 25.8572 808.437 23.59C804.273 24.2776 799.421 27.7341 795.369 23.6457C793.491 23.9802 792.004 19.1113 790.126 21.6387C788.397 23.59 786.576 21.5829 784.828 21.4529C782.077 24.8908 781.426 21.36 778.916 19.8175C777.076 15.5061 775.161 20.8025 773.246 19.2972C767.391 20.8768 761.535 18.4052 755.679 19.3529C752.054 20.7653 748.131 13.5177 744.562 19.26C740.472 16.8256 737.033 21.9546 733.11 23.367C731.289 27.158 729.653 19.5573 727.849 25.1696C722.291 29.1837 716.937 24.5935 711.081 26.7492C708.032 27.1209 705.132 30.0013 702.251 25.7457C700.28 30.2801 698.719 20.8954 696.841 22.4564C693.532 16.0079 690.037 17.6804 686.431 20.4122C682.415 19.6688 678.511 20.9325 674.589 21.4529C670.666 22.2891 666.744 20.0963 662.691 22.5679C659.289 22.1033 656.835 21.0626 653.879 23.5714C649.585 23.3112 645.346 25.9129 641.182 23.813C637.669 26.4147 633.579 16.491 629.991 23.5714C625.343 26.3961 620.677 20.6723 616.03 23.5714C611.382 17.2715 606.716 32.0455 602.069 23.5714C597.217 25.3183 592.346 20.3564 587.494 23.59C583.423 17.4946 580.802 19.8547 576.953 20.5609C573.849 19.1299 570.577 19.3529 567.454 20.2449C565.651 19.706 564.331 22.3821 562.676 18.2379C560.706 12.2168 559.218 14.5769 557.211 17.0485C555.017 11.715 553.586 15.2459 551.225 15.0601C546.93 17.0857 541.186 20.8954 537.059 14.9858C535.107 13.6849 533.75 13.9823 531.705 12.0867C529.27 10.3027 527.504 12.4584 525.254 13.0717C522.038 14.038 518.971 18.1078 515.495 16.2866C513.468 20.5051 511.684 14.6327 509.713 15.376C507.668 10.693 504.675 11.715 502.612 15.3574C501.403 15.153 500.511 16.8627 499.117 17.0485C496.681 16.6025 493.986 19.6688 491.495 17.253C488.799 14.0008 486.234 19.26 483.724 16.5468C480.657 13.6106 477.199 11.2133 473.648 12.7371C470.097 15.6919 466.435 8.89034 462.94 12.2354C458.739 12.8672 454.556 14.4654 450.299 15.0415C446.06 15.1158 441.748 15.0787 437.342 16.2123C433.587 18.1822 429.813 15.6734 426.188 15.2088C423.455 13.9822 421.893 12.923 419.142 12.1982C415.405 14.0938 411.966 11.8265 408.639 13.6106C406.426 16.2494 404.288 16.1008 401.853 17.1415C400.124 17.1601 398.135 17.2716 396.369 17.2344C391.48 15.915 385.196 18.5538 380.921 18.2936C377.779 21.3228 374.693 19.1671 371.124 19.3715C368.354 18.5167 366.978 22.4192 364.692 18.591C364.097 18.7582 363.632 16.0822 362.963 17.4574C361.568 14.6884 359.338 16.5468 357.906 17.1972C355.675 16.6769 356.4 17.8291 354.597 18.8326C351.678 21.8989 348.425 18.2007 345.023 20.4122C341.138 22.3263 337.42 19.1857 333.739 20.5237C330.058 20.8954 326.396 24.036 322.641 22.2705C318.012 24.9466 313.736 25.4855 308.884 24.6678C305.408 25.3183 301.02 24.0174 297.618 24.5563C296.615 24.1289 296.001 26.3032 295.016 25.6899C290.963 27.7713 286.595 28.366 282.375 26.7678C279.121 25.6342 275.849 26.0059 272.596 26.7492C268.432 24.4263 263.673 24.7979 259.639 26.9536C255.939 32.027 253.244 33.1977 249.228 29.9828C244.451 30.4288 238.428 29.1651 233.687 29.9828C231.698 30.4102 231.809 30.0943 230.174 27.9943C229.151 29.5553 227.236 25.7457 226.158 26.9908C223.462 25.6899 221.046 28.9978 218.555 23.8687C217.179 22.3263 216.008 24.4448 214.502 21.6573C212.271 22.3635 209.743 25.5413 207.456 21.4529C203.627 18.6467 200.374 22.3263 196.637 22.5493C190.893 24.7608 185.316 22.1962 179.664 21.7316C176.708 17.8291 176.076 18.8883 173.492 19.3158C171.652 15.4132 171.726 19.0556 169.886 18.4051C167.134 18.8883 164.309 12.7 161.595 14.8743C156.315 12.4212 149.418 8.01691 143.73 14.0938C140.848 13.7407 135.457 13.9265 133.059 13.9079C132.297 12.7929 131.925 11.6965 131.218 11.7151C130.419 7.68241 129.173 9.0576 128.225 10.1169C124.675 5.9913 121.161 9.44783 117.35 8.81599C114.58 9.46641 112.684 12.1239 110.044 7.99833C106.438 6.75323 102.478 7.96115 98.7786 7.75673C97.6075 6.4373 96.3247 7.06915 95.2093 7.94258C93.9452 7.34791 93.5734 9.03899 92.1234 9.94959C90.2272 11.6779 87.5688 9.59651 85.5611 9.87527C81.5456 8.593 77.5301 7.32931 73.5147 9.87527C68.5139 10.9717 64.8331 11.3991 60.2413 13.3133C55.6868 13.9265 51.5226 15.9893 46.5776 15.1344C44.0122 15.6548 39.9967 13.4805 37.5428 15.0229C35.8697 19.0742 35.5537 18.2193 34.1408 17.5875C33.2113 16.9928 32.2632 19.1299 31.2779 18.5352C26.5003 17.6804 22.4105 22.1776 17.261 20.4122C17.261 20.9325 12 35.7065 12 35.1676C13.8404 37.7135 14.8257 36.487 16.4802 37.1003C18.0232 36.5799 19.6405 36.3198 21.2207 37.2675C23.8605 34.7959 27.0208 39.256 29.6234 37.1932C32.4491 37.2304 34.6985 41.1701 37.5242 40.2038C40.9634 41.0214 44.4583 38.9029 47.5629 38.9215C51.6899 37.2861 55.2778 32.919 59.7394 29.8155C60.6689 30.9305 62.6952 28.0872 63.5876 29.8898C66.5062 29.4624 70.3915 25.4484 73.1243 30.3544C75.5782 30.3359 77.7346 29.3695 80.5603 31.5809C82.6238 27.4554 81.4341 29.0907 84.1296 28.7934C86.2675 30.3172 88.9259 24.1289 91.1567 27.604C94.7446 26.9722 95.8972 25.2068 98.8716 31.6367C103.389 32.2128 111.68 31.1907 116.328 31.9898C120.566 32.696 125.437 26.3218 129.731 31.934C132.817 31.3022 136.182 35.149 138.989 34.1083C142.168 34.1083 145.551 35.5021 148.935 37.026C154.252 36.3384 160.572 33.7181 166 37.2675C169.551 37.9366 173.176 36.9888 176.727 37.2489C180.464 34.1269 182.806 41.0958 186.58 40.5197C190.019 40.9843 194.22 42.3037 197.566 40.3896C198.682 42.4524 199.481 42.3409 200.578 41.5604C202.102 41.3559 204.185 40.9657 205.746 41.5046C206.769 39.5162 208.107 40.9285 209.092 41.3559C210.394 41.3188 210.877 40.5754 212.141 38.5126C213.796 38.6985 217.402 40.8356 219.057 38.3454C221.845 38.0481 224.634 39.7763 227.162 39.3675C230.88 42.0064 233.52 43.6231 238.093 43.6789C241.458 39.7578 244.915 42.6196 248.299 43.6231C251.255 44.6452 254.396 43.9019 257.055 43.0099C257.947 42.7869 258.672 40.7427 259.62 41.5046C261.516 42.6382 263.691 41.5604 265.718 40.4453C268.934 39.6277 272.206 42.3966 275.422 40.4639C277.615 41.6533 281.966 44.3851 283.955 40.2781C285.349 34.7773 285.851 36.6543 287.208 36.487C290.35 34.3313 296.057 37.2861 299.719 35.2048C301.652 36.4313 301.318 34.6473 303.512 35.818C306.393 34.034 308.587 44.0691 311.598 40.594C315.037 39.8135 318.495 43.6603 322.046 41.5232C326.154 41.9878 330.263 43.3072 334.371 41.5232C335.412 42.0435 336.806 43.0471 337.829 41.3931C340.989 43.1957 341.733 44.4966 344.466 45.6116C346.845 49.3655 349.634 46.8753 352.106 45.6859C355.527 41.3188 358.594 47.1726 362.108 46.8009C365.621 44.1992 369.135 46.6894 372.667 46.8009C374.972 45.9089 377.63 46.3178 379.898 46.7452C381.85 44.9797 383.542 50.7593 385.494 47.8974C390.55 49.0867 395.997 47.4328 400.608 45.5373C403.378 45.3514 405.59 42.3037 408.453 41.5975C409.958 42.694 410.888 37.3605 412.282 39.9064C414.309 38.3082 416.372 40.7055 418.584 39.4418C421.819 43.6975 425.295 37.918 428.511 39.5162C433.215 41.2444 436.561 37.8065 440.744 33.5508C443.309 33.365 447.009 35.2791 449.778 33.0491C453.329 35.3348 456.192 33.1234 459.594 35.0375C460.691 34.0154 461.769 40.4639 462.847 35.4463C463.907 35.6879 464.985 38.6241 466.045 37.156C471.938 35.1118 478.128 44.5523 484.375 40.5383C488.353 39.479 492.368 41.8391 496.347 40.4082C500.344 38.0295 504.303 39.1073 508.17 41.3188C511.516 44.1435 514.807 46.3735 517.948 40.2595C521.183 34.9632 522.782 37.5649 526.351 38.3826C532.672 38.0852 538.974 37.4534 545.294 38.3826C548.92 39.6834 552.563 38.8843 556.188 38.3826C559.609 37.7321 562.156 36.9144 565.465 39.4604C572.139 41.1143 578.441 37.4162 584.389 41.5232C586.918 43.3072 589.669 48.362 592.272 44.6453C596.454 44.5709 600.451 47.6558 605.099 48.7708C610.397 50.6849 614.338 45.4629 619.469 46.9868C626.217 48.7151 632.817 42.3223 639.751 45.7603C643.971 43.9391 649.882 47.5257 653.879 45.593C657.058 45.2771 658.508 43.809 662.152 41.5232C665.349 38.8286 668.9 45.9833 672.079 41.4303C675.481 42.2479 678.548 42.2479 681.95 43.7532C684.274 48.1575 686.802 41.6161 689.163 43.6417C693.104 43.9391 697.064 40.5568 701.005 43.6417C704.946 43.586 708.906 43.3444 712.847 43.6417C717.104 38.048 721.454 45.9275 725.544 44.9426C729.206 49.1611 731.586 48.7522 735.713 48.9566C740.416 51.93 743.484 47.7301 747.889 46.485C751.738 46.6894 755.586 46.1505 759.453 45.5187C763.71 45.37 767.483 44.8125 771.369 42.601C775.645 42.0064 778.805 36.8587 783.731 40.5011C790.015 42.7869 796.298 43.7161 802.582 40.5011C806.225 42.6382 808.772 39.9064 812.416 39.4604C817.324 36.8029 821.878 41.486 826.693 40.2781C831.564 40.9657 836.769 43.586 841.695 41.5418C845.339 41.9692 847.997 42.3409 851.343 45.1656C855.322 48.0832 860.453 42.9913 864.766 45.7789C868.391 47.6744 870.9 43.9576 874.246 43.6975C877.407 43.8276 884.992 44.2178 886.739 39.4604C886.739 35.595 892 16.491 892 19.4458C890.29 24.2218 885.103 21.137 882.631 21.4715Z" fill="#FFFBF0"/>
</g>
<defs>
<filter id="filter0_d_1_22" x="0" y="0" width="904" height="67" filterUnits="userSpaceOnUse" color-interpolation-filters="sRGB">
<feFlood flood-opacity="0" result="BackgroundImageFix"/>
<feColorMatrix in="SourceAlpha" type="matrix" values="0 0 0 0 0 0 0 0 0 0 0 0 0 0 0 0 0 0 127 0" result="hardAlpha"/>
<feOffset dy="5"/>
<feGaussianBlur stdDeviation="6"/>
<feComposite in2="hardAlpha" operator="out"/>
<feColorMatrix type="matrix" values="0 0 0 0 0 0 0 0 0 0 0 0 0 0 0 0 0 0 0.09 0"/>
<feBlend mode="normal" in2="BackgroundImageFix" result="effect1_dropShadow_1_22"/>
<feBlend mode="normal" in="SourceGraphic" in2="effect1_dropShadow_1_22" result="shape"/>
</filter>
</defs>
</svg>
